<svg width="786" height="783" viewBox="0 0 786 783" fill="none" xmlns="http://www.w3.org/2000/svg">
<line y1="-1.5" x2="238.379" y2="-1.5" transform="matrix(0.628958 0.777439 -0.765214 0.643777 113.584 125.095)" stroke="white" stroke-width="3"/>
<line y1="-1.5" x2="279.709" y2="-1.5" transform="matrix(-0.374382 0.927274 -0.922704 -0.385509 368.012 50.9645)" stroke="white" stroke-width="3"/>
<line y1="-1.5" x2="210.796" y2="-1.5" transform="matrix(-0.58194 -0.813232 0.802247 -0.596992 549.746 370.651)" stroke="white" stroke-width="3"/>
<line y1="-1.5" x2="198.438" y2="-1.5" transform="matrix(0.503703 -0.863877 0.85509 0.518479 549.746 370.651)" stroke="white" stroke-width="3"/>
<path d="M358.403 444.797L277.145 331.269" stroke="white" stroke-width="3"/>
<line y1="-1.5" x2="180.329" y2="-1.5" transform="matrix(-0.604675 -0.796473 0.784876 -0.619653 204.451 491.112)" stroke="white" stroke-width="3"/>
<line y1="-1.5" x2="174.195" y2="-1.5" transform="matrix(-0.991118 -0.132987 0.127968 -0.991778 204.451 495.746)" stroke="white" stroke-width="3"/>
<line y1="-1.5" x2="263.624" y2="-1.5" transform="matrix(0.6549 -0.755716 0.742857 0.669451 377.098 569.876)" stroke="white" stroke-width="3"/>
<line y1="-1.5" x2="187.712" y2="-1.5" transform="matrix(0.992356 -0.123411 0.118742 0.992925 549.746 370.651)" stroke="white" stroke-width="3"/>
<path d="M336.701 556.266L204.451 498.401" stroke="white" stroke-width="3"/>
<line y1="-1.5" x2="125.835" y2="-1.5" transform="matrix(-0.108317 -0.994116 0.993642 -0.112586 377.098 569.876)" stroke="white" stroke-width="3"/>
<line y1="-1.5" x2="178.756" y2="-1.5" transform="matrix(0.965827 -0.259188 0.249872 0.968279 377.098 569.876)" stroke="white" stroke-width="3"/>
<line y1="-1.5" x2="171.486" y2="-1.5" transform="matrix(0.026494 -0.999649 0.99962 0.0275507 372.555 741.302)" stroke="white" stroke-width="3"/>
<ellipse cx="365.74" cy="440.148" rx="47.7052" ry="46.3314" fill="#52BEB6"/>
<ellipse cx="113.584" cy="125.095" rx="49.9769" ry="50.9645" fill="#C0EEA5"/>
<ellipse cx="649.699" cy="201.541" rx="36.3468" ry="39.3817" fill="#A6D9D5"/>
<ellipse cx="429.347" cy="199.225" rx="74.9653" ry="74.1302" fill="#63B995"/>
<ellipse cx="263.514" cy="312.737" rx="59.0636" ry="57.9142" fill="#A6D9D5"/>
<ellipse cx="368.012" cy="50.9645" rx="49.9769" ry="50.9645" fill="#8FE9C2"/>
<ellipse cx="97.6821" cy="347.485" rx="47.7052" ry="46.3314" fill="#63B995"/>
<ellipse cx="547.474" cy="528.178" rx="43.1619" ry="41.6982" fill="#A6D9D5"/>
<ellipse cx="31.8035" cy="472.58" rx="31.8035" ry="32.4319" fill="#52BEB6"/>
<ellipse cx="374.827" cy="741.302" rx="43.1619" ry="41.6982" fill="#63B995"/>
<ellipse cx="377.098" cy="567.559" rx="59.0636" ry="57.9142" fill="#8FE9C2"/>
<ellipse cx="547.474" cy="372.967" rx="65.8786" ry="67.1805" fill="#C0EEA5"/>
<ellipse cx="204.451" cy="498.062" rx="59.0636" ry="57.9142" fill="#C0EEA5"/>
<ellipse cx="736.023" cy="347.485" rx="49.9769" ry="50.9645" fill="#8FE9C2"/>
</svg>
