<svg width="2118" height="860" viewBox="0 0 2118 860" fill="none" xmlns="http://www.w3.org/2000/svg">
<path d="M880.121 677L834.041 612.2C828.857 612.776 823.481 613.064 817.913 613.064H763.769V677H742.457V475.4H817.913C843.641 475.4 863.801 481.544 878.393 493.832C892.985 506.12 900.281 523.016 900.281 544.52C900.281 560.264 896.249 573.608 888.185 584.552C880.313 595.304 868.985 603.08 854.201 607.88L903.449 677H880.121ZM817.337 594.92C837.305 594.92 852.569 590.504 863.129 581.672C873.689 572.84 878.969 560.456 878.969 544.52C878.969 528.2 873.689 515.72 863.129 507.08C852.569 498.248 837.305 493.832 817.337 493.832H763.769V594.92H817.337ZM1078.17 607.592H951.446C952.598 623.336 958.646 636.104 969.59 645.896C980.534 655.496 994.358 660.296 1011.06 660.296C1020.47 660.296 1029.11 658.664 1036.98 655.4C1044.85 651.944 1051.67 646.952 1057.43 640.424L1068.95 653.672C1062.23 661.736 1053.78 667.88 1043.61 672.104C1033.62 676.328 1022.58 678.44 1010.49 678.44C994.934 678.44 981.11 675.176 969.014 668.648C957.11 661.928 947.798 652.712 941.078 641C934.358 629.288 930.998 616.04 930.998 601.256C930.998 586.472 934.166 573.224 940.502 561.512C947.03 549.8 955.862 540.68 966.998 534.152C978.326 527.624 990.998 524.36 1005.01 524.36C1019.03 524.36 1031.61 527.624 1042.74 534.152C1053.88 540.68 1062.61 549.8 1068.95 561.512C1075.29 573.032 1078.45 586.28 1078.45 601.256L1078.17 607.592ZM1005.01 541.928C990.422 541.928 978.134 546.632 968.15 556.04C958.358 565.256 952.79 577.352 951.446 592.328H1058.87C1057.53 577.352 1051.86 565.256 1041.88 556.04C1032.09 546.632 1019.8 541.928 1005.01 541.928ZM1309 524.36C1328.01 524.36 1342.89 529.832 1353.64 540.776C1364.59 551.72 1370.06 567.848 1370.06 589.16V677H1349.61V591.176C1349.61 575.432 1345.77 563.432 1338.09 555.176C1330.6 546.92 1319.95 542.792 1306.12 542.792C1290.38 542.792 1277.99 547.688 1268.97 557.48C1259.95 567.08 1255.43 580.424 1255.43 597.512V677H1234.99V591.176C1234.99 575.432 1231.15 563.432 1223.47 555.176C1215.98 546.92 1205.23 542.792 1191.21 542.792C1175.66 542.792 1163.27 547.688 1154.06 557.48C1145.03 567.08 1140.52 580.424 1140.52 597.512V677H1120.07V525.512H1139.66V553.16C1145.03 543.944 1152.52 536.84 1162.12 531.848C1171.72 526.856 1182.76 524.36 1195.24 524.36C1207.91 524.36 1218.86 527.048 1228.07 532.424C1237.48 537.8 1244.49 545.768 1249.1 556.328C1254.67 546.344 1262.63 538.568 1273 533C1283.56 527.24 1295.56 524.36 1309 524.36ZM1425.51 525.512H1445.96V677H1425.51V525.512ZM1435.88 492.392C1431.66 492.392 1428.1 490.952 1425.22 488.072C1422.34 485.192 1420.9 481.736 1420.9 477.704C1420.9 473.864 1422.34 470.504 1425.22 467.624C1428.1 464.744 1431.66 463.304 1435.88 463.304C1440.1 463.304 1443.66 464.744 1446.54 467.624C1449.42 470.312 1450.86 473.576 1450.86 477.416C1450.86 481.64 1449.42 485.192 1446.54 488.072C1443.66 490.952 1440.1 492.392 1435.88 492.392ZM1599.34 677L1551.24 613.64L1502.86 677H1479.82L1539.72 599.24L1482.7 525.512H1505.74L1551.24 584.84L1596.74 525.512H1619.21L1562.18 599.24L1622.66 677H1599.34ZM1748.57 680.456C1728.03 680.456 1709.4 676.04 1692.7 667.208C1676.19 658.184 1663.13 645.8 1653.53 630.056C1644.12 614.12 1639.42 596.168 1639.42 576.2C1639.42 556.232 1644.12 538.376 1653.53 522.632C1663.13 506.696 1676.19 494.312 1692.7 485.48C1709.4 476.456 1728.12 471.944 1748.86 471.944C1766.33 471.944 1782.08 475.016 1796.09 481.16C1810.3 487.304 1822.2 496.136 1831.8 507.656L1801.85 535.304C1788.22 519.56 1771.32 511.688 1751.16 511.688C1738.68 511.688 1727.55 514.472 1717.76 520.04C1707.96 525.416 1700.28 533 1694.72 542.792C1689.34 552.584 1686.65 563.72 1686.65 576.2C1686.65 588.68 1689.34 599.816 1694.72 609.608C1700.28 619.4 1707.96 627.08 1717.76 632.648C1727.55 638.024 1738.68 640.712 1751.16 640.712C1771.32 640.712 1788.22 632.744 1801.85 616.808L1831.8 644.456C1822.2 656.168 1810.3 665.096 1796.09 671.24C1781.88 677.384 1766.04 680.456 1748.57 680.456ZM1927.86 680.456C1911.93 680.456 1896.47 678.344 1881.49 674.12C1866.71 669.704 1854.81 664.04 1845.78 657.128L1861.62 621.992C1870.26 628.328 1880.53 633.416 1892.44 637.256C1904.34 641.096 1916.25 643.016 1928.15 643.016C1941.4 643.016 1951.19 641.096 1957.53 637.256C1963.86 633.224 1967.03 627.944 1967.03 621.416C1967.03 616.616 1965.11 612.68 1961.27 609.608C1957.62 606.344 1952.82 603.752 1946.87 601.832C1941.11 599.912 1933.24 597.8 1923.25 595.496C1907.89 591.848 1895.32 588.2 1885.53 584.552C1875.73 580.904 1867.29 575.048 1860.18 566.984C1853.27 558.92 1849.81 548.168 1849.81 534.728C1849.81 523.016 1852.98 512.456 1859.32 503.048C1865.65 493.448 1875.16 485.864 1887.83 480.296C1900.69 474.728 1916.34 471.944 1934.77 471.944C1947.64 471.944 1960.21 473.48 1972.5 476.552C1984.79 479.624 1995.54 484.04 2004.76 489.8L1990.36 525.224C1971.73 514.664 1953.11 509.384 1934.49 509.384C1921.43 509.384 1911.73 511.496 1905.4 515.72C1899.25 519.944 1896.18 525.512 1896.18 532.424C1896.18 539.336 1899.73 544.52 1906.84 547.976C1914.13 551.24 1925.17 554.504 1939.96 557.768C1955.32 561.416 1967.89 565.064 1977.69 568.712C1987.48 572.36 1995.83 578.12 2002.74 585.992C2009.85 593.864 2013.4 604.52 2013.4 617.96C2013.4 629.48 2010.13 640.04 2003.61 649.64C1997.27 659.048 1987.67 666.536 1974.81 672.104C1961.94 677.672 1946.29 680.456 1927.86 680.456Z" fill="#222D59"/>
<line y1="-1.5" x2="238.379" y2="-1.5" transform="matrix(0.628958 0.777439 -0.765214 0.643777 113.584 125.095)" stroke="white" stroke-width="3"/>
<line y1="-1.5" x2="279.709" y2="-1.5" transform="matrix(-0.374382 0.927274 -0.922704 -0.385509 368.012 50.9645)" stroke="white" stroke-width="3"/>
<line y1="-1.5" x2="210.796" y2="-1.5" transform="matrix(-0.58194 -0.813232 0.802247 -0.596992 549.746 370.651)" stroke="white" stroke-width="3"/>
<line y1="-1.5" x2="198.438" y2="-1.5" transform="matrix(0.503703 -0.863877 0.85509 0.518479 549.746 370.651)" stroke="white" stroke-width="3"/>
<path d="M358.403 444.797L277.145 331.269" stroke="white" stroke-width="3"/>
<line y1="-1.5" x2="180.329" y2="-1.5" transform="matrix(-0.604675 -0.796473 0.784876 -0.619653 204.451 491.112)" stroke="white" stroke-width="3"/>
<line y1="-1.5" x2="174.195" y2="-1.5" transform="matrix(-0.991118 -0.132987 0.127968 -0.991778 204.451 495.745)" stroke="white" stroke-width="3"/>
<line y1="-1.5" x2="263.624" y2="-1.5" transform="matrix(0.6549 -0.755716 0.742857 0.669451 377.098 569.876)" stroke="white" stroke-width="3"/>
<line y1="-1.5" x2="187.712" y2="-1.5" transform="matrix(0.992356 -0.123411 0.118742 0.992925 549.746 370.651)" stroke="white" stroke-width="3"/>
<path d="M336.701 556.266L204.451 498.401" stroke="white" stroke-width="3"/>
<line y1="-1.5" x2="125.835" y2="-1.5" transform="matrix(-0.108317 -0.994116 0.993642 -0.112586 377.098 569.876)" stroke="white" stroke-width="3"/>
<line y1="-1.5" x2="178.756" y2="-1.5" transform="matrix(0.965827 -0.259188 0.249872 0.968279 377.098 569.876)" stroke="white" stroke-width="3"/>
<line y1="-1.5" x2="171.486" y2="-1.5" transform="matrix(0.026494 -0.999649 0.99962 0.0275507 372.555 741.302)" stroke="white" stroke-width="3"/>
<ellipse cx="365.74" cy="440.148" rx="47.7052" ry="46.3314" fill="#52BEB6"/>
<ellipse cx="113.584" cy="125.095" rx="49.9769" ry="50.9645" fill="#C0EEA5"/>
<ellipse cx="649.699" cy="201.541" rx="36.3468" ry="39.3817" fill="#A6D9D5"/>
<ellipse cx="429.347" cy="199.225" rx="74.9653" ry="74.1302" fill="#63B995"/>
<ellipse cx="263.514" cy="312.737" rx="59.0636" ry="57.9142" fill="#A6D9D5"/>
<ellipse cx="368.012" cy="50.9645" rx="49.9769" ry="50.9645" fill="#8FE9C2"/>
<ellipse cx="97.6821" cy="347.485" rx="47.7052" ry="46.3314" fill="#63B995"/>
<ellipse cx="547.474" cy="528.177" rx="43.1619" ry="41.6982" fill="#A6D9D5"/>
<ellipse cx="31.8035" cy="472.58" rx="31.8035" ry="32.4319" fill="#52BEB6"/>
<ellipse cx="374.827" cy="741.302" rx="43.1619" ry="41.6982" fill="#63B995"/>
<ellipse cx="377.098" cy="567.559" rx="59.0636" ry="57.9142" fill="#8FE9C2"/>
<ellipse cx="547.474" cy="372.967" rx="65.8786" ry="67.1805" fill="#C0EEA5"/>
<ellipse cx="204.451" cy="498.062" rx="59.0636" ry="57.9142" fill="#C0EEA5"/>
<ellipse cx="736.023" cy="347.485" rx="49.9769" ry="50.9645" fill="#8FE9C2"/>
</svg>
